<?xml version="1.0" standalone="no"?>
<!DOCTYPE svg PUBLIC "-//W3C//DTD SVG 20010904//EN"
 "http://www.w3.org/TR/2001/REC-SVG-20010904/DTD/svg10.dtd">
<svg version="1.0" xmlns="http://www.w3.org/2000/svg"
 width="880.000000pt" height="283.000000pt" viewBox="0 0 880.000000 283.000000"
 preserveAspectRatio="xMidYMid meet">

<g transform="translate(0.000000,283.000000) scale(0.100000,-0.100000)"
fill="#000000" stroke="none">
<path d="M130 2817 c-47 -15 -103 -74 -118 -123 -16 -53 -17 -1010 -2 -1066
14 -50 55 -97 105 -119 37 -17 77 -19 557 -19 296 0 527 4 541 9 39 15 97 71
112 109 23 53 22 1046 0 1100 -21 49 -52 81 -100 103 -37 17 -74 19 -550 18
-341 -1 -521 -5 -545 -12z m715 -412 c44 -22 57 -52 30 -71 -13 -10 -25 -9
-58 3 -23 9 -72 16 -108 16 -57 1 -74 -3 -115 -28 -105 -66 -128 -211 -46
-299 59 -63 159 -82 260 -50 54 18 79 14 88 -11 14 -35 -28 -59 -133 -75 -70
-12 -152 -1 -205 26 -42 22 -98 82 -119 128 -29 64 -26 168 7 234 30 60 89
115 148 136 58 22 198 16 251 -9z"/>
<path d="M1637 2816 c-50 -18 -85 -51 -108 -101 -17 -37 -19 -76 -19 -560 0
-520 0 -520 23 -559 12 -22 39 -53 60 -70 l39 -31 526 -3 c587 -3 582 -3 641
64 17 18 35 52 41 74 7 27 10 209 8 554 l-3 514 -30 43 c-16 23 -48 52 -70 63
-39 20 -54 21 -555 23 -418 2 -522 0 -553 -11z m668 -410 c60 -28 127 -98 146
-152 23 -68 17 -155 -17 -220 -87 -172 -346 -202 -474 -57 -127 145 -69 373
113 440 18 6 66 12 107 12 59 1 86 -4 125 -23z"/>
<path d="M2145 2356 c-5 -3 -22 -7 -37 -10 -35 -8 -94 -59 -115 -100 -9 -17
-17 -56 -17 -86 -1 -70 27 -125 83 -165 39 -27 50 -30 121 -30 72 0 81 2 116
31 69 55 79 76 79 164 0 72 -2 81 -31 116 -16 21 -46 46 -65 56 -34 17 -114
31 -134 24z"/>
<path d="M4400 2264 c-8 -3 -24 -9 -35 -14 -11 -5 -51 -20 -90 -35 -38 -14
-77 -30 -85 -36 -8 -5 -23 -12 -32 -15 -10 -4 -18 -10 -18 -15 0 -5 -18 -18
-40 -29 -22 -11 -40 -27 -40 -35 0 -8 -9 -15 -19 -15 -11 0 -22 -9 -26 -20 -3
-11 -19 -27 -36 -37 -16 -9 -29 -23 -29 -30 0 -7 -3 -13 -8 -13 -4 0 -16 -16
-26 -35 -11 -19 -24 -35 -31 -35 -6 0 -17 -16 -24 -35 -7 -19 -16 -35 -21 -35
-5 0 -12 -15 -15 -32 -4 -18 -13 -40 -20 -48 -7 -8 -16 -41 -20 -73 -5 -37
-13 -61 -24 -66 -14 -8 -16 -37 -16 -231 0 -196 2 -222 17 -231 11 -6 19 -29
23 -74 4 -37 14 -70 22 -77 8 -6 28 -38 44 -70 16 -32 33 -58 38 -58 5 0 14
-14 20 -30 5 -17 17 -33 26 -36 8 -3 15 -10 15 -15 0 -17 75 -89 92 -89 10 0
18 -7 18 -15 0 -8 10 -20 22 -26 12 -6 31 -20 42 -30 11 -11 28 -19 37 -19 10
0 19 -4 21 -8 6 -15 74 -50 111 -56 20 -4 37 -11 37 -16 0 -6 16 -10 35 -10
19 0 35 -3 35 -8 0 -4 24 -13 53 -20 64 -15 257 -16 257 -2 0 6 18 10 40 10
22 0 40 5 40 10 0 6 8 10 19 10 10 0 35 7 54 15 20 8 46 15 57 15 25 0 110 37
110 48 0 4 16 14 35 21 19 7 35 17 35 22 0 5 9 9 19 9 11 0 26 8 33 18 7 9 25
25 41 35 44 28 45 27 -96 190 -23 27 -57 64 -75 83 l-33 34 -60 -30 c-32 -17
-59 -34 -59 -38 0 -12 -73 -40 -125 -47 -28 -4 -55 -12 -62 -17 -28 -22 -287
12 -317 42 -6 6 -18 10 -28 10 -10 0 -18 6 -19 13 0 6 -21 26 -47 42 -26 17
-49 39 -51 49 -2 11 -14 28 -27 39 -13 10 -24 25 -24 32 0 7 -8 21 -17 31 -10
10 -24 43 -31 73 -7 31 -17 76 -23 101 -10 47 -3 187 11 205 4 6 13 36 20 68
7 37 16 57 26 57 8 0 14 7 14 15 0 9 11 26 25 39 14 13 25 28 25 34 0 6 11 19
25 30 14 11 25 24 25 30 0 15 61 48 123 66 30 9 57 22 60 29 5 15 224 17 235
1 4 -5 36 -21 72 -33 66 -24 109 -49 110 -64 0 -5 12 -21 28 -36 60 -61 89
-98 96 -124 3 -15 11 -27 16 -27 6 0 10 -7 10 -15 0 -13 -41 -15 -310 -15
l-310 0 0 -185 0 -185 500 0 500 0 0 146 c0 80 -4 154 -10 164 -5 10 -13 50
-16 89 -4 39 -10 71 -15 71 -4 0 -10 15 -14 33 -3 17 -10 41 -15 52 -31 75
-43 95 -54 95 -8 0 -17 15 -20 34 -4 22 -13 36 -26 39 -11 3 -20 14 -20 25 0
23 -66 102 -86 102 -7 0 -16 11 -20 24 -3 15 -20 31 -41 41 -19 9 -37 23 -40
31 -3 8 -10 14 -17 14 -6 0 -23 6 -38 14 -14 8 -43 19 -65 26 -35 12 -64 25
-118 54 -21 11 -358 20 -385 10z"/>
<path d="M5570 1386 l0 -886 399 0 c256 0 402 4 406 10 3 6 22 10 41 10 19 0
34 4 34 9 0 4 28 14 61 20 34 7 71 21 83 32 21 21 73 49 88 49 4 0 27 18 50
40 24 22 47 40 53 40 5 0 22 21 38 46 15 25 36 48 47 51 11 3 22 14 25 24 4
10 10 19 15 19 5 0 12 10 16 22 3 12 15 31 25 42 11 11 19 30 19 42 0 11 10
32 23 45 24 25 42 86 52 184 4 33 12 63 18 67 15 9 15 246 0 256 -5 4 -13 32
-17 62 -14 110 -28 170 -42 170 -8 0 -19 19 -25 44 -6 25 -20 52 -30 62 -10 9
-19 25 -19 35 0 11 -9 24 -20 31 -11 7 -20 18 -20 25 0 7 -7 13 -15 13 -8 0
-15 4 -15 9 0 13 -67 81 -80 81 -6 0 -15 13 -21 28 -6 18 -26 36 -57 52 -25
14 -53 31 -60 38 -7 6 -18 12 -23 12 -6 0 -17 7 -25 15 -9 8 -24 15 -34 15
-10 0 -54 14 -97 32 l-78 31 -407 5 -408 4 0 -886z m760 496 c0 -5 26 -15 58
-22 71 -17 134 -51 147 -79 5 -11 17 -21 25 -21 8 0 28 -21 45 -48 16 -26 35
-53 42 -60 7 -7 13 -22 13 -33 0 -10 3 -19 8 -19 28 0 56 -171 46 -285 -6 -63
-27 -131 -44 -145 -4 -3 -10 -18 -14 -33 -4 -16 -16 -38 -27 -50 -11 -12 -27
-36 -35 -54 -9 -17 -23 -34 -32 -37 -29 -11 -66 -34 -77 -49 -35 -48 -203 -80
-405 -75 l-145 3 -3 508 -2 507 200 0 c110 0 200 -4 200 -8z"/>
<path d="M7252 1686 c2 -451 6 -588 16 -598 6 -6 12 -22 12 -35 0 -33 36 -133
53 -147 8 -6 20 -27 28 -46 7 -19 22 -44 32 -56 10 -12 26 -36 35 -54 9 -19
32 -41 49 -49 18 -9 35 -24 39 -33 3 -10 12 -18 20 -18 8 0 14 -4 14 -9 0 -5
8 -12 18 -15 9 -3 28 -16 42 -29 14 -13 28 -24 32 -26 4 -1 23 -8 42 -16 20
-8 40 -15 46 -15 5 0 10 -4 10 -10 0 -5 16 -10 35 -10 19 0 35 -4 35 -10 0 -5
15 -10 34 -10 19 0 38 -4 41 -10 3 -6 50 -10 105 -10 55 0 102 4 105 10 3 6
22 10 41 10 19 0 34 5 34 10 0 6 8 10 19 10 10 0 32 7 47 15 16 8 37 15 48 15
10 0 35 13 55 29 21 17 50 36 67 43 16 7 43 28 60 45 17 18 35 33 39 33 11 0
34 33 35 49 0 7 20 33 44 56 32 32 45 54 50 84 3 23 11 41 16 41 6 0 10 7 10
16 0 9 9 28 20 44 31 43 42 274 38 810 l-3 465 -150 3 c-82 1 -160 0 -172 -3
l-23 -5 0 -533 c0 -292 -3 -549 -6 -569 -4 -21 -12 -38 -19 -38 -7 0 -16 -19
-19 -45 -5 -29 -14 -49 -27 -55 -10 -6 -19 -16 -19 -23 0 -7 -13 -18 -30 -25
-16 -8 -30 -19 -30 -26 0 -14 -52 -42 -95 -52 -16 -4 -35 -11 -42 -16 -15 -12
-172 -12 -186 1 -7 5 -32 14 -57 21 -72 18 -99 33 -105 57 -3 13 -12 23 -19
23 -16 0 -46 42 -46 65 0 8 -8 23 -17 33 -48 47 -48 44 -53 632 l-5 555 -173
3 -173 2 3 -584z"/>
<path d="M125 1325 c-48 -17 -97 -70 -113 -123 -17 -54 -17 -1015 -1 -1063 18
-53 58 -99 103 -120 38 -17 75 -19 554 -19 440 0 518 2 550 15 47 20 79 50
103 97 18 35 19 66 19 558 0 497 -1 523 -20 559 -24 48 -70 87 -118 101 -23 6
-223 10 -537 10 -403 -1 -508 -4 -540 -15z m648 -406 c53 -18 121 -80 148
-137 32 -65 32 -159 0 -224 -29 -62 -97 -120 -162 -141 -63 -21 -278 -24 -297
-5 -17 17 -17 499 1 517 15 17 253 9 310 -10z"/>
<path d="M535 858 c-3 -7 -4 -97 -3 -198 l3 -185 75 0 c104 1 145 11 187 48
46 40 63 82 63 152 0 63 -9 86 -53 132 -38 40 -67 50 -179 58 -70 5 -89 4 -93
-7z"/>
<path d="M1637 1326 c-50 -18 -85 -51 -108 -101 -17 -37 -19 -76 -19 -558 0
-490 1 -520 19 -555 24 -47 56 -77 103 -97 32 -13 110 -15 550 -15 476 0 516
2 553 19 51 23 91 70 105 121 7 26 10 214 8 554 l-3 514 -30 43 c-17 24 -46
52 -65 64 -34 19 -51 20 -555 22 -423 2 -527 0 -558 -11z m677 -402 c18 -18
19 -23 6 -44 -7 -12 -33 -15 -112 -17 l-103 -2 -3 -75 -3 -76 99 0 c101 0 122
-7 122 -42 0 -28 -33 -38 -129 -38 l-91 0 0 -80 0 -80 110 0 c98 0 110 -2 120
-19 7 -15 6 -23 -6 -35 -12 -13 -41 -16 -148 -16 -89 0 -136 4 -144 12 -17 17
-17 499 0 516 8 8 54 12 139 12 103 0 131 -3 143 -16z"/>
</g>
</svg>
